<svg xmlns="http://www.w3.org/2000/svg" xmlns:xlink="http://www.w3.org/1999/xlink" width="24" height="24" version="1.1" viewBox="0 0 24 24"><title>money</title><desc>Created with Sketch.</desc><defs><radialGradient id="radialGradient-1" cx="50%" cy="50%" r="68.628%" fx="50%" fy="50%"><stop offset="0%" stop-color="#FFCF00"/><stop offset="100%" stop-color="#F7AE15"/></radialGradient></defs><g id="Catalog" fill="none" fill-rule="evenodd" stroke="none" stroke-width="1"><g id="Page-1" transform="translate(-1362.000000, -28.000000)"><g id="top"><g id="Profile" transform="translate(1183.000000, 16.000000)"><g id="Points-available" transform="translate(112.000000, 0.000000)"><g id="money" transform="translate(67.000000, 12.000000)"><circle id="Oval-Copy-3" cx="12" cy="12" r="12" fill="url(#radialGradient-1)"/><path id="Shape" fill="#F8B013" fill-rule="nonzero" d="M12,2.85714286 C6.96535714,2.85714286 2.85714286,6.96607143 2.85714286,12 C2.85714286,17.0346429 6.96607143,21.1428571 12,21.1428571 C17.0346429,21.1428571 21.1428571,17.0339286 21.1428571,12 C21.1428571,6.96535714 17.0339286,2.85714286 12,2.85714286 Z M12,20.0714286 C7.54939286,20.0714286 3.92857143,16.4506071 3.92857143,12 C3.92857143,7.54939286 7.54939286,3.92857143 12,3.92857143 C16.4506071,3.92857143 20.0714286,7.54939286 20.0714286,12 C20.0714286,16.4506071 16.4506071,20.0714286 12,20.0714286 Z"/><path id="Shape" fill="#F8B013" fill-rule="nonzero" d="M12,4.88888889 C8.09385941,4.88888889 4.88888889,8.09498413 4.88888889,12 C4.88888889,15.9061406 8.09498413,19.1111111 12,19.1111111 C15.9061406,19.1111111 19.1111111,15.9050159 19.1111111,12 C19.1111111,8.09385941 15.9050159,4.88888889 12,4.88888889 Z M12,18.0226757 C8.67907483,18.0226757 5.97732426,15.3209252 5.97732426,12 C5.97732426,8.67907483 8.67907483,5.97732426 12,5.97732426 C15.3209252,5.97732426 18.0226757,8.67907483 18.0226757,12 C18.0226757,15.3209252 15.3209252,18.0226757 12,18.0226757 Z"/></g></g></g></g></g></g></svg>